<svg xmlns="http://www.w3.org/2000/svg" viewBox="0 0 800 600"><defs><style>.cls-1{fill:#d6d6b6;}.cls-2{fill:#3d2323;}.cls-3{fill:#4c2828;}.cls-4{fill:#514f18;}</style></defs><title>Artboard 1</title><g id="Layer_3" data-name="Layer 3"><path class="cls-1" d="M205.21,144.94s-94.1-27.39-86-85.1c0,.67.21,38.2,93.73,53C211.67,115.28,205.21,144.94,205.21,144.94Z"/><path class="cls-1" d="M522.06,141.8s94.1-27.39,86-85.1c0,.67-.21,38.2-93.73,53C515.6,112.13,522.06,141.8,522.06,141.8Z"/></g><g id="Layer_2" data-name="Layer 2"><path class="cls-2" d="M201.06,235s-4.7-116.78,14.09-126.85,290.6-32.21,306-4S509.79,235,509.79,235Z"/></g><g id="Layer_4" data-name="Layer 4"><polygon class="cls-1" points="208 240 217 216 225 240 208 240"/><polygon class="cls-1" points="241 240 225 213 251 240 241 240"/><polygon class="cls-1" points="251 235.01 256 213 268 235.01 251 235.01"/><polygon class="cls-1" points="277 235.01 277 216 284 235.01 277 235.01"/><polygon class="cls-1" points="299 235.01 317 213 328 235.01 299 235.01"/><polygon class="cls-1" points="347 235.01 363.26 216 355.13 235.01 347 235.01"/><polygon class="cls-1" points="369 235.01 378 206 383 235.01 369 235.01"/><polygon class="cls-1" points="410 235.01 400 213 427 235.01 410 235.01"/><path class="cls-1" d="M445,240l8-27s26,27,9,27Z"/><polygon class="cls-1" points="478 235.01 485 216 485 240 478 235.01"/><polygon class="cls-1" points="502 235.01 498 220.5 509.79 235.01 502 235.01"/><polygon class="cls-1" points="514.38 235.01 530 216 530 240 514.38 235.01"/></g><g id="Layer_1" data-name="Layer 1"><path class="cls-3" d="M222.54,322.93s152.35,28.86,270.47,0c6-.67,49.66-83.22,47.65-90.6s-340.27-4-355,0S222.54,322.93,222.54,322.93Z"/></g><g id="Layer_5" data-name="Layer 5"><ellipse class="cls-1" cx="275.75" cy="155.5" rx="37.75" ry="28.5"/><circle class="cls-1" cx="471.5" cy="153.5" r="26.5"/></g><g id="Layer_6" data-name="Layer 6"><circle class="cls-4" cx="270" cy="155.44" r="10.5"/><circle class="cls-4" cx="471.87" cy="153.81" r="8.87"/></g></svg>