<?xml version="1.0" encoding="utf-8"?>
<!-- Generator: Adobe Illustrator 20.1.0, SVG Export Plug-In . SVG Version: 6.00 Build 0)  -->
<svg version="1.1" id="Layer_2" xmlns="http://www.w3.org/2000/svg" xmlns:xlink="http://www.w3.org/1999/xlink" x="0px" y="0px"
	 viewBox="0 0 225 245" enable-background="new 0 0 225 245" xml:space="preserve">
<g>
	<path fill="none" stroke="#FFFFFF" stroke-width="7" stroke-miterlimit="10" d="M207.6,223.5c0,22.1-14.8,19.4-14.8,19.4h-55
		c0,0-43.7-0.3-54.7,0c-14.5-0.3-17.5-10.3-17.5-10.3l-36.5-48.8l0.3-0.2L4.7,149.4c-1.2-2.5-1.9-5.3-1.9-8.3
		c0-10.7,8.7-19.3,19.3-19.3c5,0,9.6,1.9,13,5.1l26.1,34.6l1.4-1l0.8-47.5V20.3c0.8-9.9,9.1-17.7,19.3-17.7
		c10.1,0,18.5,7.8,19.3,17.7c0.1,0.5,0.1,1.1,0.1,1.7v90.9h6.4V94.8c1.1-9.7,9.4-17.2,19.4-17.2s18.2,7.5,19.4,17.2
		c0.1,0.8,0.1,1.5,0.1,2.3v15.8h6v-10.6c0-9.5,7.7-17.1,17.1-17.1c9.5,0,17.1,7.7,17.1,17.1v10.6h5.5c0-0.2,0-0.4,0-0.6
		c0-8.2,6.6-14.8,14.8-14.8s14.8,6.6,14.8,14.8c0,0.2,0,0.4,0,0.6l0,0c0,0,0,18.7,0,33.7C225.1,164.4,213.6,191.3,207.6,223.5z"/>
	<line fill="none" stroke="#FFFFFF" stroke-width="7" stroke-miterlimit="10" x1="100.4" y1="142.9" x2="100.4" y2="202.9"/>
	<line fill="none" stroke="#FFFFFF" stroke-width="7" stroke-miterlimit="10" x1="140.4" y1="142.9" x2="140.4" y2="202.9"/>
	<line fill="none" stroke="#FFFFFF" stroke-width="7" stroke-miterlimit="10" x1="180.4" y1="142.9" x2="180.4" y2="202.9"/>
</g>
</svg>
